<?xml version="1.0" encoding="UTF-8" standalone="no"?>
<!-- Created with Inkscape (http://www.inkscape.org/) -->

<svg
   width="105mm"
   height="74mm"
   viewBox="0 0 105 74"
   version="1.1"
   id="svg5"
   inkscape:version="1.1.2 (0a00cf5339, 2022-02-04)"
   sodipodi:docname="me-white.svg"
   xmlns:inkscape="http://www.inkscape.org/namespaces/inkscape"
   xmlns:sodipodi="http://sodipodi.sourceforge.net/DTD/sodipodi-0.dtd"
   xmlns="http://www.w3.org/2000/svg"
   xmlns:svg="http://www.w3.org/2000/svg">
  <sodipodi:namedview
     id="namedview7"
     pagecolor="#ffffff"
     bordercolor="#666666"
     borderopacity="1.0"
     inkscape:pageshadow="2"
     inkscape:pageopacity="0.0"
     inkscape:pagecheckerboard="0"
     inkscape:document-units="mm"
     showgrid="false"
     inkscape:zoom="0.75187991"
     inkscape:cx="-60.514983"
     inkscape:cy="349.1249"
     inkscape:window-width="2490"
     inkscape:window-height="1016"
     inkscape:window-x="70"
     inkscape:window-y="27"
     inkscape:window-maximized="1"
     inkscape:current-layer="layer1"
     units="mm" />
  <defs
     id="defs2">
    <rect
       x="531.50031"
       y="258.45981"
       width="292.8985"
       height="159.28079"
       id="rect83250" />
    <rect
       x="269.79037"
       y="75.993233"
       width="263.32108"
       height="199.31467"
       id="rect78934" />
    <rect
       x="291.1152"
       y="88.615303"
       width="18.917265"
       height="53.907745"
       id="rect54238" />
  </defs>
  <g
     inkscape:label="Layer 1"
     inkscape:groupmode="layer"
     id="layer1">
    <text
       xml:space="preserve"
       transform="scale(0.26458333)"
       id="text54236"
       style="font-style:normal;font-weight:normal;font-size:40px;line-height:1.25;font-family:sans-serif;white-space:pre;shape-inside:url(#rect54238);fill:#000000;fill-opacity:1;stroke:none" />
    <text
       xml:space="preserve"
       transform="scale(0.26458333)"
       id="text78932"
       style="font-size:40px;line-height:1.25;font-family:Kalimati;-inkscape-font-specification:Kalimati;white-space:pre;shape-inside:url(#rect78934)" />
    <text
       xml:space="preserve"
       transform="scale(0.26458333)"
       id="text83248"
       style="font-size:40px;line-height:1.25;font-family:Kalimati;-inkscape-font-specification:Kalimati;white-space:pre;shape-inside:url(#rect83250)" />
    <g
       transform="matrix(0.0102981,0,0,-0.0102981,-6.1484518,104.70533)"
       fill="#000000"
       stroke="none"
       id="g84826"
       style="fill:#ffffff;fill-opacity:1">
      <path
         d="m 5757,6839 c -100,-36 -216,-120 -357,-259 -143,-140 -224,-235 -214,-251 12,-19 62,-7 126,30 36,21 142,90 234,153 93,64 210,139 261,168 51,29 95,60 98,71 4,11 11,17 16,14 14,-9 -2,29 -18,42 -8,6 -15,20 -16,31 -1,16 -5,18 -18,12 -9,-5 -19,-6 -23,-3 -12,12 -40,9 -89,-8 z m 134,-90 c -5,-13 -10,-19 -10,-12 -1,15 10,45 15,40 3,-2 0,-15 -5,-28 z"
         id="path84794"
         style="fill:#ffffff;fill-opacity:1" />
      <path
         d="m 3827,6819 c -77,-11 -233,-62 -310,-100 -148,-75 -356,-216 -471,-319 -70,-63 -226,-225 -226,-235 0,-2 -16,-21 -35,-42 -132,-142 -265,-390 -300,-558 -61,-295 59,-515 355,-652 52,-24 105,-49 116,-54 40,-20 62,-147 45,-257 -29,-186 -116,-342 -326,-589 -35,-40 -168,-172 -209,-207 -27,-22 -57,-48 -65,-56 -9,-8 -55,-41 -103,-72 -138,-91 -338,-180 -438,-194 -122,-17 -129,-20 -128,-55 1,-20 4,-26 9,-17 7,10 9,8 9,-6 0,-11 5,-16 14,-13 7,3 19,0 25,-6 16,-16 14,-32 -2,-18 -10,8 -14,7 -14,-4 0,-18 18,-20 35,-3 9,9 12,8 13,-7 0,-11 3,-14 6,-7 2,6 13,12 23,12 10,0 22,5 25,10 10,16 25,11 24,-7 0,-11 -3,-13 -6,-5 -2,6 -9,10 -13,7 -5,-3 -7,-12 -4,-20 5,-11 10,-12 26,-4 16,8 23,8 30,-2 7,-10 8,-8 5,9 -3,12 -1,22 4,22 5,0 9,-7 9,-15 0,-23 17,-18 24,8 6,22 7,22 21,3 8,-11 15,-14 15,-7 0,7 5,9 10,6 6,-3 10,1 10,10 0,15 2,15 17,-1 11,-11 18,-13 21,-5 2,6 8,8 14,5 5,-3 8,2 6,11 -2,11 4,19 15,20 9,2 15,-1 11,-6 -3,-5 -10,-6 -16,-3 -7,4 -8,2 -4,-5 4,-6 12,-8 18,-5 6,4 24,7 40,6 15,0 27,2 24,6 -7,12 19,29 42,27 12,-1 22,1 22,4 0,3 14,12 30,19 17,8 28,18 24,23 -3,5 -1,9 5,9 5,0 12,-6 14,-12 4,-10 6,-10 6,0 1,7 6,10 11,7 6,-3 13,1 16,10 6,13 8,14 15,3 7,-10 11,-8 15,9 4,13 10,20 15,17 5,-3 12,2 15,10 3,9 10,14 14,11 13,-8 40,6 40,21 0,7 12,17 26,20 15,4 23,12 20,20 -3,8 2,11 14,9 12,-2 28,7 41,23 16,19 20,21 15,8 -7,-19 -6,-19 14,-1 11,10 20,24 20,31 0,8 11,16 25,20 14,3 25,12 25,20 0,8 5,14 11,14 17,0 68,53 62,63 -3,6 -1,7 5,3 7,-4 12,-2 12,4 0,7 7,10 15,6 9,-3 15,0 15,10 0,8 5,12 10,9 6,-3 10,-1 10,5 0,7 14,25 30,40 17,15 30,33 30,39 0,6 3,10 8,10 22,-4 34,3 28,16 -3,8 0,15 7,16 14,0 103,110 99,122 -1,4 5,7 13,7 8,0 15,4 15,8 0,5 19,38 42,73 103,159 151,295 151,433 0,102 -7,135 -44,214 -45,92 -119,162 -231,216 -51,24 -107,47 -125,51 -77,15 -125,116 -124,261 0,50 6,105 12,120 6,16 10,31 10,34 -1,12 22,87 32,105 6,11 12,22 13,25 8,34 66,149 81,161 7,7 13,16 13,21 0,6 17,32 38,58 20,27 48,63 62,81 14,18 42,54 63,79 21,25 47,56 59,70 39,47 106,115 152,154 25,21 44,41 41,44 -2,3 9,12 25,21 16,9 42,28 58,42 16,15 42,35 58,45 16,11 35,25 44,32 26,23 120,81 120,75 0,-3 8,0 18,8 9,8 35,24 57,34 22,11 42,23 43,28 2,4 12,7 23,7 10,0 19,5 19,11 0,5 4,8 9,4 5,-3 15,0 23,7 7,7 24,15 37,16 14,2 36,9 50,14 30,13 33,14 81,23 59,12 141,13 178,2 46,-15 62,-54 61,-154 0,-78 -18,-157 -58,-267 -19,-50 -20,-63 -10,-88 14,-35 48,-53 114,-62 45,-6 53,-5 71,16 49,56 99,232 92,329 -13,179 -167,348 -359,394 -70,16 -113,17 -202,4 z M 1768,3453 c -10,-2 -18,-9 -18,-15 0,-6 -3,-9 -6,-5 -10,10 6,27 24,26 15,-1 15,-2 0,-6 z m 77,-63 c 3,-6 -1,-7 -9,-4 -18,7 -21,14 -7,14 6,0 13,-4 16,-10 z"
         id="path84796"
         style="fill:#ffffff;fill-opacity:1" />
      <path
         d="m 7130,6679 c -19,-12 -49,-36 -67,-55 l -32,-33 -56,25 c -72,33 -95,29 -111,-19 -7,-20 -58,-128 -113,-240 -153,-310 -201,-439 -201,-542 0,-104 51,-178 132,-190 25,-4 56,-4 67,0 20,6 21,11 15,70 -11,108 33,222 174,450 98,159 218,298 150,175 -72,-130 -138,-344 -138,-443 0,-52 34,-114 75,-138 19,-11 52,-18 88,-18 l 57,-1 -6,38 c -7,47 14,135 56,235 39,90 170,334 221,409 21,31 45,74 52,97 l 14,40 -50,26 c -28,14 -56,25 -62,25 -7,0 -20,9 -30,20 -10,11 -24,20 -30,20 -7,0 -15,7 -19,15 -9,26 -69,55 -111,55 -23,0 -55,-9 -75,-21 z"
         id="path84798"
         style="fill:#ffffff;fill-opacity:1" />
      <path
         d="m 8015,6636 c -8,-19 -15,-38 -15,-41 0,-4 -21,-50 -46,-103 -26,-53 -57,-119 -70,-146 -13,-28 -24,-55 -24,-62 0,-7 -3,-14 -7,-16 -5,-1 -19,-28 -33,-58 -13,-30 -30,-62 -36,-70 -7,-8 -13,-18 -13,-23 -1,-4 -16,-40 -35,-80 -19,-39 -36,-81 -38,-91 -1,-11 -13,-31 -25,-44 -36,-40 -52,-77 -40,-97 6,-12 6,-16 -1,-11 -8,5 -23,-15 -26,-36 -1,-3 -4,-10 -8,-14 -5,-4 -8,-15 -8,-25 0,-9 -5,-19 -11,-21 -5,-2 -11,-10 -12,-19 -2,-9 -11,-28 -20,-42 -13,-20 -14,-27 -5,-27 8,0 5,-5 -5,-11 -9,-6 -15,-14 -12,-20 4,-5 2,-9 -2,-9 -13,0 -46,-78 -38,-90 3,-5 3,-10 -2,-10 -4,0 -14,-15 -21,-32 -7,-18 -18,-41 -24,-52 -7,-14 -6,-21 4,-27 10,-7 9,-9 -4,-9 -17,0 -22,-10 -19,-37 1,-7 -3,-13 -9,-13 -6,0 -10,-8 -8,-18 1,-10 -5,-30 -14,-44 -10,-14 -23,-48 -29,-75 -7,-26 -16,-50 -20,-53 -5,-3 -9,-20 -11,-38 -1,-18 -6,-32 -10,-32 -4,0 -7,-10 -6,-22 0,-13 -6,-42 -14,-65 -10,-27 -11,-40 -4,-36 6,4 5,0 -2,-9 -7,-9 -12,-20 -11,-24 1,-5 0,-11 -1,-14 -1,-3 -3,-14 -5,-25 -1,-11 -6,-36 -10,-55 -23,-111 -22,-299 3,-371 29,-83 46,-112 91,-152 55,-49 110,-76 178,-85 74,-10 121,0 208,44 101,51 161,100 325,264 210,210 340,369 340,418 0,36 -27,79 -67,107 -57,38 -77,34 -117,-29 -19,-30 -91,-121 -159,-203 -247,-294 -462,-473 -570,-473 -39,0 -37,-3 -57,88 -11,48 -8,271 4,291 2,3 7,27 11,51 10,70 24,129 40,166 8,19 11,34 8,34 -3,0 -1,6 4,13 5,6 10,23 11,37 1,14 6,26 12,28 5,2 8,8 4,13 -3,5 2,23 10,40 9,17 13,35 10,40 -3,5 0,9 6,9 7,0 10,7 6,15 -3,8 -1,15 4,15 6,0 9,3 8,8 -1,4 4,20 10,35 7,16 12,34 12,40 0,7 7,22 15,33 8,12 16,32 19,45 2,13 19,56 37,94 18,39 33,75 34,80 2,13 9,31 65,160 72,163 83,190 84,195 1,3 17,39 37,80 33,68 50,106 54,120 0,3 16,37 34,75 18,39 34,76 35,83 1,7 8,18 14,24 7,7 12,17 12,24 0,7 7,25 15,41 8,15 24,51 35,78 12,28 25,59 30,70 12,26 18,52 25,97 9,56 -31,113 -93,132 -19,6 -25,2 -37,-28 z"
         id="path84800"
         style="fill:#ffffff;fill-opacity:1" />
      <path
         d="m 6235,6443 c -68,-35 -152,-122 -225,-234 -78,-118 -102,-166 -128,-254 -32,-110 -35,-140 -22,-227 25,-161 110,-247 245,-250 90,-2 153,28 239,116 82,83 99,106 150,211 125,256 127,465 7,598 -65,72 -174,88 -266,40 z m 185,-142 c 0,-34 -37,-192 -66,-280 -39,-118 -84,-207 -149,-291 -41,-53 -126,-120 -153,-120 -20,0 -14,99 12,195 56,206 175,398 295,476 47,30 61,35 61,20 z"
         id="path84802"
         style="fill:#ffffff;fill-opacity:1" />
      <path
         d="m 5472,6292 c -71,-26 -149,-81 -239,-170 l -74,-73 -20,26 c -51,64 -137,73 -230,24 -60,-33 -191,-157 -271,-258 l -42,-54 -7,29 c -12,60 -53,116 -106,143 -71,36 -187,-13 -283,-121 l -35,-39 -41,39 c -50,46 -122,71 -131,44 -3,-10 -43,-102 -88,-207 -187,-428 -210,-496 -210,-636 0,-101 1,-107 29,-143 40,-53 107,-81 182,-77 19,1 21,7 21,64 -1,117 83,295 291,622 47,74 143,197 149,191 2,-1 -3,-19 -11,-38 -25,-58 -83,-258 -101,-343 -50,-242 19,-374 190,-363 l 40,3 1,62 c 2,70 21,124 97,278 106,214 236,418 339,532 60,66 67,62 28,-17 -69,-137 -130,-358 -129,-462 1,-136 55,-209 166,-223 l 50,-7 -1,113 c 0,132 19,214 87,369 48,110 81,168 152,265 77,105 90,109 45,12 -55,-117 -73,-194 -68,-288 8,-131 67,-225 176,-276 80,-38 150,-36 233,5 66,32 159,110 159,132 0,6 5,8 10,5 6,-3 10,1 10,9 0,9 4,16 9,16 5,0 12,11 15,25 4,14 11,23 15,20 14,-8 20,17 9,38 -6,11 -5,17 2,17 13,0 -21,49 -34,50 -5,0 -1,-10 10,-22 l 19,-23 -22,19 c -13,11 -23,25 -23,33 0,16 -16,17 -26,1 -5,-7 -3,-8 6,-3 9,5 11,4 6,-4 -6,-9 -11,-9 -22,0 -12,10 -13,9 -8,-6 5,-12 4,-16 -3,-12 -6,4 -47,-24 -91,-62 -83,-72 -200,-138 -227,-128 -21,9 -20,130 1,203 14,48 22,58 70,90 75,50 158,145 200,231 34,66 36,77 32,145 -4,86 -27,138 -82,182 -32,26 -47,31 -104,33 -47,2 -83,-2 -120,-15 z"
         id="path84804"
         style="fill:#ffffff;fill-opacity:1" />
      <path
         d="m 3653,6248 c -20,-23 -103,-201 -103,-219 0,-42 85,-111 151,-123 l 36,-6 42,87 c 55,114 58,132 32,180 -37,64 -132,113 -158,81 z"
         id="path84806"
         style="fill:#ffffff;fill-opacity:1" />
      <path
         d="m 3516,5733 c -39,-78 -155,-420 -191,-568 -64,-257 -6,-415 152,-415 73,0 80,9 62,67 -31,98 -6,274 74,524 8,24 29,88 46,143 42,127 42,168 5,208 -31,32 -93,68 -118,68 -9,0 -22,-12 -30,-27 z"
         id="path84808"
         style="fill:#ffffff;fill-opacity:1" />
      <path
         d="m 6072,5377 c -5,-7 -18,-39 -30,-72 -11,-33 -68,-197 -127,-365 -193,-553 -314,-924 -325,-1000 -6,-41 -15,-87 -20,-103 -5,-16 -5,-25 1,-21 5,3 9,-6 9,-20 0,-70 53,-109 140,-104 l 55,3 1,57 c 1,32 5,75 9,95 4,21 9,49 11,62 18,95 112,274 222,419 56,75 152,182 152,170 0,-3 -22,-62 -50,-131 -27,-69 -65,-181 -85,-249 -30,-102 -36,-135 -33,-196 3,-65 6,-75 35,-104 27,-27 41,-32 93,-36 51,-4 63,-1 75,14 7,10 11,22 9,25 -2,4 5,9 16,12 11,3 24,17 30,31 11,29 23,36 14,9 -3,-10 3,-6 12,10 10,15 24,27 31,27 6,0 15,9 18,20 3,11 11,20 16,20 13,0 84,70 92,90 4,10 6,11 6,2 1,-13 45,28 55,51 3,7 12,2 23,-13 50,-70 117,-106 216,-116 52,-5 74,-2 136,21 79,29 171,81 171,96 0,6 4,8 9,5 8,-5 25,8 125,101 52,49 87,105 82,135 -3,21 -35,62 -42,55 -4,-4 -16,0 -26,10 -17,15 -18,15 -19,-8 0,-13 -3,-19 -5,-12 -3,7 -39,-14 -92,-56 -183,-144 -298,-208 -383,-213 l -44,-3 -3,50 c -1,28 1,55 5,60 5,6 37,32 73,58 153,112 343,331 370,425 45,164 -71,293 -215,237 -107,-40 -334,-334 -394,-508 -11,-31 -37,-81 -58,-110 -70,-96 -186,-238 -190,-233 -3,3 13,54 35,113 23,59 52,143 66,185 61,182 12,321 -118,335 -60,7 -142,-27 -183,-77 -19,-24 -16,-6 23,106 19,57 37,112 39,122 2,10 10,35 19,55 8,21 15,38 15,40 0,3 9,32 18,55 3,9 7,19 7,22 1,3 4,10 7,15 9,15 47,145 54,188 13,68 -22,113 -112,144 -24,9 -34,9 -41,0 z M 7244,4352 c 2,-4 -4,-8 -14,-8 -10,0 -16,4 -14,8 3,4 9,8 14,8 5,0 11,-4 14,-8 z m 9,-57 c -3,-9 -8,-14 -10,-11 -3,3 -2,9 2,15 9,16 15,13 8,-4 z"
         id="path84810"
         style="fill:#ffffff;fill-opacity:1" />
      <path
         d="m 5075,5128 c -72,-223 -86,-276 -81,-307 9,-60 67,-101 141,-101 45,0 55,10 55,53 0,12 11,58 25,102 33,106 33,154 -1,195 -40,47 -130,85 -139,58 z"
         id="path84812"
         style="fill:#ffffff;fill-opacity:1" />
      <path
         d="m 4604,4905 c -80,-24 -191,-115 -308,-254 -77,-92 -205,-259 -251,-329 -15,-23 -29,-41 -31,-39 -2,1 6,36 16,77 57,220 -26,398 -198,426 -93,15 -260,-74 -398,-211 -78,-78 -241,-277 -325,-398 -57,-83 -61,-88 -118,-177 -20,-30 -38,-57 -41,-60 -16,-16 -110,-214 -115,-243 -13,-69 37,-107 140,-107 52,0 55,1 55,25 0,76 178,373 358,596 168,209 354,373 461,404 22,7 23,5 16,-27 -13,-66 -86,-268 -170,-473 -232,-564 -264,-654 -280,-788 -5,-43 -2,-60 17,-97 36,-70 97,-95 185,-76 27,6 29,11 39,75 18,112 139,346 347,671 112,175 211,318 304,435 35,44 66,85 71,90 10,15 66,81 120,144 65,75 166,159 170,140 1,-8 -25,-102 -58,-209 -124,-395 -160,-544 -180,-738 -19,-188 3,-283 83,-346 31,-25 49,-31 102,-34 40,-3 65,0 65,6 0,5 -9,41 -21,78 -30,99 -28,229 7,409 9,44 20,98 24,120 4,22 14,67 23,100 8,33 17,71 19,85 2,14 5,27 8,30 6,5 17,41 55,175 9,33 20,67 23,75 3,8 6,22 6,30 1,8 4,20 7,25 4,6 10,33 14,60 34,224 -79,379 -241,330 z"
         id="path84814"
         style="fill:#ffffff;fill-opacity:1" />
      <path
         d="m 5325,4539 c -156,-99 -319,-451 -302,-654 10,-118 72,-231 150,-271 18,-9 60,-18 94,-21 54,-5 70,-2 118,21 61,31 152,111 135,121 -17,10 -12,22 13,29 18,5 20,8 7,16 -12,8 -12,10 -1,10 11,0 11,3 0,17 -8,9 -9,14 -2,10 13,-8 12,10 -1,32 -7,11 -10,11 -17,0 -7,-11 -9,-10 -9,3 0,9 8,22 18,27 14,9 14,10 2,11 -9,0 -22,-6 -29,-12 -10,-11 -11,-10 -6,5 14,34 -20,16 -90,-48 -72,-66 -158,-121 -174,-111 -32,20 -17,206 29,348 33,103 101,236 137,269 l 25,24 -7,-53 c -4,-34 -3,-63 5,-82 19,-46 92,-71 157,-54 19,5 22,13 22,53 -1,25 3,64 9,87 19,82 -5,170 -60,220 -18,18 -38,23 -102,26 -72,3 -83,1 -121,-23 z"
         id="path84816"
         style="fill:#ffffff;fill-opacity:1" />
      <path
         d="m 4852,4288 c -84,-298 -107,-470 -78,-601 21,-93 60,-151 121,-178 47,-21 125,-17 125,6 0,6 -9,38 -21,71 -41,119 -30,304 36,584 8,36 18,94 21,130 6,79 -13,118 -75,150 -73,37 -71,40 -129,-162 z"
         id="path84818"
         style="fill:#ffffff;fill-opacity:1" />
      <path
         d="m 7207,4424 c -12,-12 -8,-21 11,-26 11,-3 19,0 19,8 0,7 -4,11 -8,8 -4,-2 -9,1 -11,7 -2,5 -7,7 -11,3 z"
         id="path84820"
         style="fill:#ffffff;fill-opacity:1" />
      <path
         d="m 5555,3869 c -4,-6 -5,-12 -2,-15 2,-3 7,2 10,11 7,17 1,20 -8,4 z"
         id="path84822"
         style="fill:#ffffff;fill-opacity:1" />
      <path
         d="m 1700,3455 c -11,-13 -10,-14 4,-9 9,3 16,10 16,15 0,13 -6,11 -20,-6 z"
         id="path84824"
         style="fill:#ffffff;fill-opacity:1" />
    </g>
    <path
       d="m 30.128421,2.1154211 c -0.891679,0.6643863 -0.751809,0.8217411 2.220447,2.5176751 4.353484,2.5001911 8.35728,5.5773498 11.556835,8.8468298 2.832378,2.919804 4.493346,5.280125 5.454955,7.762833 l 0.349679,0.874192 -1.993158,-0.664387 c -1.083999,-0.36716 -2.482707,-0.699354 -3.094646,-0.76929 l -1.118959,-0.104902 -0.20981,0.594451 c -0.27974,0.821741 -0.06992,5.892059 0.27974,7.063477 0.36716,1.153934 1.835808,2.605094 3.374386,3.3569 0.629419,0.297225 2.115547,0.804258 3.321936,1.101483 2.255408,0.559484 3.706576,1.101483 4.021285,1.468644 0.0874,0.122386 0.27974,0.804257 0.41961,1.521095 0.856709,4.475867 3.496775,7.902702 7.850251,10.193087 0.839228,0.437096 1.888249,0.961612 2.342837,1.136451 0.47206,0.174838 1.503609,0.611935 2.307867,0.961614 2.150515,0.926643 5.559862,2.15051 7.920188,2.814899 1.870768,0.541999 2.220439,0.699354 3.514247,1.678446 0.786778,0.594454 2.010647,1.363744 2.709997,1.678452 3.094646,1.433677 6.294192,1.381227 6.923611,-0.122384 0.1049,-0.279745 0.47206,-0.699354 0.80425,-0.926648 0.472069,-0.31471 0.611939,-0.524514 0.611939,-0.944128 0,-0.437095 0.0874,-0.576964 0.541999,-0.734319 0.786779,-0.279744 1.188899,-1.171418 1.031549,-2.307871 -0.1049,-0.751803 -0.06992,-0.909158 0.33219,-1.398706 0.384649,-0.437098 0.454579,-0.716839 0.454579,-1.556064 0,-0.99658 -0.26225,-1.923224 -0.541999,-1.923224 -0.06992,0 -0.29722,-0.332194 -0.47206,-0.751805 -0.734319,-1.660967 -4.860514,-5.66477 -8.67199,-8.444703 l -0.524519,-0.36716 0.384649,-0.489548 c 0.664389,-0.839225 1.591028,-4.510835 1.363739,-5.385028 -0.157359,-0.646902 -0.78677,-0.804256 -3.426836,-0.839224 -3.077157,-0.01749 -9.231479,-0.891677 -16.662108,-2.36032 -4.283545,-0.839226 -4.283545,-0.839226 -5.612314,-2.76245 -0.594459,-0.874193 -1.153938,-1.695933 -1.223878,-1.818321 -0.1049,-0.157355 1.223878,-0.209806 6.329162,-0.209806 h 6.46902 l 2.692508,2.115547 c 1.468648,1.171417 3.059676,2.482707 3.549225,2.937287 0.472069,0.437096 0.646909,0.542 0.34968,0.22729 -0.27974,-0.297226 -0.524519,-0.664386 -0.542,-0.786773 -0.13987,-0.629419 -1.066518,-2.884837 -1.905738,-4.598255 C 70.37625,14.039409 64.659039,8.3921248 57.001108,4.3009035 56.144399,3.8288391 55.025431,3.2169039 54.518401,2.9371622 l -0.891679,-0.4895475 -0.507038,0.4370965 -0.489541,0.4370956 0.45458,0.3846454 c 0.262259,0.2272898 1.468639,1.1014827 2.709997,1.9756757 2.447737,1.730901 5.419994,4.4583821 7.098442,6.5389601 2.063097,2.552643 3.811485,5.594835 4.213614,7.360704 l 0.1049,0.437097 H 61.529423 L 55.829689,20.0014 54.763171,18.707595 C 53.172143,16.766887 49.727826,13.270116 47.73466,11.591666 43.888214,8.3571525 37.926221,4.7904466 33.188096,2.8847068 32.383837,2.5525132 31.562099,2.1678686 31.35229,2.0105138 30.84526,1.6783211 30.70539,1.6783211 30.128421,2.1154167 Z M 48.434018,22.536564 c 3.828957,1.451159 4.685666,1.958191 5.892054,3.461803 0.664389,0.82174 1.416198,1.503611 2.185487,1.975676 3.549216,2.255416 12.361083,5.94451 14.161912,5.94451 0.681878,0 0.681878,-0.01749 1.626007,-1.643482 0.961609,-1.730902 1.608508,-2.552643 1.975668,-2.552643 1.049038,0.01749 1.556068,0.36716 3.356906,2.237933 1.031548,1.066516 2.430257,2.36032 3.112126,2.867353 1.835807,1.346256 5.437474,4.405931 6.853672,5.822123 1.451158,1.433675 2.814897,3.182061 2.622577,3.374384 -0.06992,0.06994 -1.049038,0.122386 -2.202967,0.104902 -1.870769,0 -2.080578,0.01749 -2.185478,0.31471 -0.367169,1.206386 1.153929,2.675029 3.391857,3.269482 0.542008,0.157353 0.804259,0.332193 0.909168,0.646903 0.262259,0.681868 0.2098,1.923221 -0.0874,2.167995 -0.419619,0.34968 -2.237937,0.104905 -3.916385,-0.507028 -1.870769,-0.681874 -3.217027,-1.451162 -5.262635,-2.989742 -1.783357,-1.328773 -2.307876,-1.556063 -2.710006,-1.223869 -0.507029,0.419612 -0.24477,0.874192 1.538587,2.517674 2.325348,2.185481 4.213606,3.584193 6.136833,4.580771 1.433669,0.751803 1.538578,0.839223 1.241349,1.049033 -0.454579,0.332189 -2.587607,0.31471 -3.776515,-0.03499 C 81.950586,53.517932 80.656778,52.818579 78.96084,51.594711 78.156579,51.00026 77.16,50.440777 76.77536,50.353357 72.754075,49.339314 64.956277,46.332092 62.316219,44.758545 c -3.566715,-2.115547 -5.752192,-5.03535 -6.626382,-8.829346 -0.192329,-0.874193 -0.437099,-1.748386 -0.524519,-1.958192 -0.209809,-0.524516 -1.888257,-1.328773 -3.496766,-1.713418 -4.947934,-1.13645 -7.046001,-2.500191 -7.500581,-4.860511 -0.2098,-1.101484 -0.34967,-5.892059 -0.174839,-5.892059 0.297229,0 2.133028,1.853288 2.447737,2.465223 0.437099,0.891677 0.419619,1.258838 -0.122381,2.080579 -0.541999,0.804257 -0.489549,1.171418 0.27974,2.220449 0.611939,0.821742 2.185487,1.923225 4.283545,3.024707 2.255418,1.153934 3.584187,1.13645 2.098058,-0.05245 -0.99657,-0.786773 -1.36373,-1.713418 -1.451149,-3.619157 -0.05244,-1.258838 -0.15736,-1.765869 -0.40213,-2.133031 -0.367168,-0.524515 -3.042195,-2.342836 -5.052834,-3.444319 -1.660968,-0.926644 -1.031548,-0.786773 2.360318,0.489548 z m 38.586863,28.778423 c 0.839228,0.244774 1.573548,0.524514 1.625998,0.611934 0.19232,0.297229 -0.45458,0.699353 -0.92664,0.594454 -1.433678,-0.332195 -3.706584,-1.626002 -5.192704,-2.954774 -0.681878,-0.594449 -0.646908,-0.594449 1.13644,0.332194 1.014068,0.524514 2.517677,1.153933 3.356906,1.416192 z"
       id="path85503"
       style="fill:#ffffff;stroke:none;stroke-width:0.0174839;fill-opacity:1" />
  </g>
</svg>
